<svg id="Color" xmlns="http://www.w3.org/2000/svg" width="104.22" height="36" viewBox="0 0 104.22 36">
  <path id="Path_12317" data-name="Path 12317" d="M37.66,12.41v2.22H29.84V2.47h2.52v9.94Z" fill="#020202"/>
  <path id="Path_12318" data-name="Path 12318" d="M42,3.48a1.42,1.42,0,1,1-.416-1.014A1.42,1.42,0,0,1,42,3.48ZM39.41,14.63V6.23h2.37v8.4Z" fill="#020202"/>
  <path id="Path_12319" data-name="Path 12319" d="M50.41,8.78l-2.35.13a1,1,0,0,0-1.08-1c-.63,0-1,.26-1,.71s.64.67,1.65.93c1.67.44,2.86,1,2.86,2.49,0,1.7-1.25,2.79-3.45,2.79s-3.4-1-3.58-2.73l2.42-.1c0,.62.4,1,1.22,1,.65,0,1-.27,1-.76s-.31-.67-1.53-1c-1.78-.46-3-.83-3-2.55S44.9,6.07,47,6.07,50.27,7.22,50.41,8.78Z" fill="#020202"/>
  <path id="Path_12320" data-name="Path 12320" d="M55.26,11.4a1.16,1.16,0,0,0,1.27,1.27,3.72,3.72,0,0,0,.73-.08V14.7a7.75,7.75,0,0,1-1.32.1c-1.82,0-3.07-.88-3-2.83V8.28H51.37v-2h1.55V3.45H55.3V6.23h2v2h-2Z" fill="#020202"/>
  <path id="Path_12321" data-name="Path 12321" d="M61.31,7a3.14,3.14,0,0,1,2.36-.89c2.39,0,4.06,1.72,4.06,4.37s-1.67,4.37-4.06,4.37a3.11,3.11,0,0,1-2.49-1v.86H58.93V2h2.38Zm0,3.28v.38a1.92,1.92,0,0,0,2,2.14,2,2,0,0,0,2-2.32c0-1.5-.85-2.34-2-2.34a1.93,1.93,0,0,0-2,2.1Z" fill="#020202"/>
  <path id="Path_12322" data-name="Path 12322" d="M78.11,10.44a4.5,4.5,0,1,1-4.5-4.5A4.5,4.5,0,0,1,78.11,10.44Zm-6.54,0a2.08,2.08,0,1,0,4.13,0,2.08,2.08,0,1,0-4.13,0Z" fill="#020202"/>
  <path id="Path_12323" data-name="Path 12323" d="M88.48,10.44a4.47,4.47,0,1,1-4.47-4.47A4.47,4.47,0,0,1,88.48,10.44Zm-6.53,0a2.08,2.08,0,1,0,4.13,0,2.08,2.08,0,1,0-4.13,0Z" fill="#020202"/>
  <path id="Path_12324" data-name="Path 12324" d="M95.46,6.23h2.88L95.17,9.82l3.39,4.81H95.69l-2.2-3-.75.82v2.22H90.37V2h2.37V9.22Z" fill="#020202"/>
  <path id="Path_12325" data-name="Path 12325" d="M34.85,19.69a5.71,5.71,0,0,1,6,6.08,5.72,5.72,0,0,1-6.05,6.08h-5V19.69Zm-2.5,10h2.52c2.11,0,3.53-1.32,3.53-3.94s-1.4-3.93-3.53-3.93H32.35Z" fill="#020202"/>
  <path id="Path_12326" data-name="Path 12326" d="M45.47,20.7a1.42,1.42,0,1,1-.43-1.029,1.43,1.43,0,0,1,.43,1.029ZM42.85,31.85v-8.4h2.38v8.4Z" fill="#020202"/>
  <path id="Path_12327" data-name="Path 12327" d="M52.19,25.66A2,2,0,0,0,50,27.59v4.26H47.58v-8.4h2.3v1a2.48,2.48,0,0,1,2.31-1Z" fill="#020202"/>
  <path id="Path_12328" data-name="Path 12328" d="M55.76,28.41a1.64,1.64,0,0,0,1.76,1.7,1.45,1.45,0,0,0,1.55-.92l2.39.11A3.72,3.72,0,0,1,57.59,32a4.1,4.1,0,0,1-4.35-4.37,4.08,4.08,0,0,1,4.28-4.38,3.82,3.82,0,0,1,4,4.18v.95Zm0-1.58h3.39a1.55,1.55,0,0,0-1.65-1.69,1.65,1.65,0,0,0-1.74,1.69Z" fill="#020202"/>
  <path id="Path_12329" data-name="Path 12329" d="M71.26,26.54l-2.32.19a1.57,1.57,0,0,0-1.66-1.41c-1.11,0-1.91.84-1.91,2.34S66.17,30,67.28,30A1.56,1.56,0,0,0,69,28.62l2.31.21a3.79,3.79,0,0,1-4,3.2A4.09,4.09,0,0,1,63,27.66a4.08,4.08,0,0,1,4.31-4.38,3.79,3.79,0,0,1,3.95,3.26Z" fill="#020202"/>
  <path id="Path_12330" data-name="Path 12330" d="M75.94,28.62a1.17,1.17,0,0,0,1.27,1.27,2.91,2.91,0,0,0,.73-.09v2.12a7.61,7.61,0,0,1-1.31.1c-1.82,0-3.08-.88-3.06-2.83V25.5H72.06V23.45H73.6V20.67H76v2.78h2V25.5H76Z" fill="#020202"/>
  <path id="Path_12331" data-name="Path 12331" d="M88.11,27.66a4.5,4.5,0,1,1-4.5-4.5A4.5,4.5,0,0,1,88.11,27.66Zm-6.54,0a2.08,2.08,0,1,0,4.13,0,2.08,2.08,0,1,0-4.13,0Z" fill="#020202"/>
  <path id="Path_12332" data-name="Path 12332" d="M94.6,25.66a2,2,0,0,0-2.23,1.93v4.26H90v-8.4h2.29v1a2.49,2.49,0,0,1,2.31-1Z" fill="#020202"/>
  <path id="Path_12333" data-name="Path 12333" d="M96.26,36l2.14-4.89-3.28-7.66h2.62l1.93,5,1.92-5h2.63L98.84,36Z" fill="#020202"/>
  <path id="Path_730" data-name="Path 730" d="M4.07,32l6.13-6.1L0,15.7l4.09-4.09.23.21L15.18,22.68a4.33,4.33,0,0,1,.3,6.12,2.83,2.83,0,0,1-.3.3L8.49,35.8c-.27.27-.41.26-.67,0-1.12-1.16-2.27-2.29-3.41-3.43A3.422,3.422,0,0,1,4.07,32Z" fill="#f64e54"/>
  <path id="Path_731" data-name="Path 731" d="M15.64,0l4,4.05L13.6,10.13,23.83,20.35l-4.08,4.08c-.07-.07-.19-.16-.29-.26L8.63,13.34A4.33,4.33,0,0,1,8.4,7.23L8.63,7,15.46.16Z" fill="#f64e54"/>
</svg>
